<svg 
    id="visual" 
    viewBox="0 0 900 600" 
    width="900" 
    height="600" 
    xmlns="http://www.w3.org/2000/svg" 
    xmlns:xlink="http://www.w3.org/1999/xlink" 
    version="1.1">
    <rect 
        x="0" 
        y="0" 
        width="300" 
        height="600" 
        fill="#002233"></rect>
    <path 
        d="M239 0L234 14.3C229 28.7 219 57.3 215.5 85.8C212 114.3 215 142.7 221.8 171.2C228.7 199.7 239.3 228.3 235.5 257C231.7 285.7 213.3 314.3 205.3 343C197.3 371.7 199.7 400.3 216.3 428.8C233 457.3 264 485.7 277.7 514.2C291.3 542.7 287.7 571.3 285.8 585.7L284 600L0 600L0 585.7C0 571.3 0 542.7 0 514.2C0 485.7 0 457.3 0 428.8C0 400.3 0 371.7 0 343C0 314.3 0 285.7 0 257C0 228.3 0 199.7 0 171.2C0 142.7 0 114.3 0 85.8C0 57.3 0 28.7 0 14.3L0 0Z" 
        fill="#0066FF" 
        stroke-linecap="round" 
        stroke-linejoin="miter">
    </path>
</svg>